# xmcd
#
# Track frame offsets:
#	150
#	24566
#	43547
#	63372
#	82512
#	99763
#	116840
#	136448
#	154095
#	169848
#
# Disc length: 2516 seconds
#
# Revision: 0
# Processed by: cddbd v1.5.2PL0 Copyright (c) Steve Scherf et al.
# Submitted via: dBpowerAMP V4.0
#
DISCID=7209d20a
DTITLE=Swingshift - Swigin' Away
DYEAR=2008
DGENRE=Country
TTITLE0=The Weight
TTITLE1=Pledge Of My Love
TTITLE2=Crazy Arms
TTITLE3=Gone At Last
TTITLE4=If You Ain't Got Nothin'
TTITLE5=It's All Over Now
TTITLE6=King Of The Road
TTITLE7=I Still Miss Someone
TTITLE8=Save The Last Dance For Me
TTITLE9=South's Gonna Do It Again
EXTD=
EXTT0=
EXTT1=
EXTT2=
EXTT3=
EXTT4=
EXTT5=
EXTT6=
EXTT7=
EXTT8=
EXTT9=
PLAYORDER=
